<svg xmlns:xlink="http://www.w3.org/1999/xlink" xmlns="http://www.w3.org/2000/svg" viewBox="0 0 24 23" class="no-stroke" width="24"  height="23" ><path d="M14,0 L14,4.32608696 L13,4.32608696 L13,1 L2.5,1 C1.67157288,1 1,1.67157288 1,2.5 L1,2.5 L1,20.5 C1,21.3284271 1.67157288,22 2.5,22 L2.5,22 L13,22 L13,18.673913 L14,18.673913 L14,23 L2.5,23 C1.11928813,23 0,21.8807119 0,20.5 L0,20.5 L0,2.5 C0,1.11928813 1.11928813,0 2.5,0 L2.5,0 L14,0 Z M19.6464466,7.64644661 C19.8417088,7.45118446 20.1582912,7.45118446 20.3535534,7.64644661 L20.3535534,7.64644661 L23.8535534,11.1464466 C24.0488155,11.3417088 24.0488155,11.6582912 23.8535534,11.8535534 L23.8535534,11.8535534 L20.3535534,15.3535534 C20.1582912,15.5488155 19.8417088,15.5488155 19.6464466,15.3535534 C19.4511845,15.1582912 19.4511845,14.8417088 19.6464466,14.6464466 L19.6464466,14.6464466 L22.292,12 L10.5,12 C10.2545401,12 10.0503916,11.8231248 10.0080557,11.5898756 L10,11.5 C10,11.2238576 10.2238576,11 10.5,11 L10.5,11 L22.292,11 L19.6464466,8.35355339 C19.4728803,8.17998704 19.4535951,7.91056264 19.5885912,7.7156945 Z" fill="#FFFFFF"></path></svg>