<svg xmlns:xlink="http://www.w3.org/1999/xlink" xmlns="http://www.w3.org/2000/svg" viewBox="0 0 17 24" class="no-stroke" width="17"  height="24" ><g stroke="none" stroke-width="1" fill="none" fill-rule="evenodd"><g transform="translate(-1704.000000, -283.000000)" fill="#FFFFFF"><g transform="translate(1685.000000, 88.000000)" fill="#FFFFFF"><g transform="translate(19.000000, 195.000000)" fill="#FFFFFF"><path d="M12.4017797,23.222439 L6.47201863,23.222439 C4.90582909,23.222439 3.5208452,22.1897379 3.02557695,20.6527565 L1.60135222,16.2326402 C1.37383696,15.5266103 1.61431167,14.7616118 2.19970695,14.3290501 L3.20691853,13.5848172 L3.20691853,16.9763106 C3.20691853,17.1909977 3.37511942,17.3650911 3.5827424,17.3650911 C3.79032006,17.3650911 3.95856626,17.1909977 3.95856626,16.9763106 L3.95856626,5.36502077 C3.95856626,5.00797459 4.10510766,4.66531901 4.36067152,4.42499136 C4.61967914,4.18138246 4.95635279,4.06630456 5.30797965,4.10108574 C5.92812981,4.16221062 6.41383707,4.74870948 6.41383707,5.43627063 L6.41383707,13.6587389 C6.41383707,13.873426 6.58208327,14.0474726 6.78966093,14.0474726 C6.99728391,14.0474726 7.1654848,13.873426 7.1654848,13.6587389 L7.1654848,11.1706188 C7.1654848,10.8135726 7.3120262,10.470917 7.56759005,10.2306363 C7.82655236,9.98702737 8.16286351,9.87171509 8.51489819,9.90668378 C9.13500303,9.96785553 9.6207556,10.5544013 9.6207556,11.2419155 L9.6207556,14.0733944 C9.6207556,14.2881283 9.78895649,14.4621749 9.99653416,14.4621749 C10.2041571,14.4621749 10.372358,14.2881283 10.372358,14.0733944 L10.372358,11.5852742 C10.372358,11.2282281 10.5189447,10.8856194 10.7744633,10.6452917 C11.0334256,10.4017297 11.369782,10.2863705 11.7217714,10.3213861 C12.3418763,10.3825578 12.8276288,10.9690567 12.8276288,11.6566179 L12.8276288,14.4880967 C12.8276288,14.7027838 12.9958297,14.8768772 13.2034074,14.8768772 C13.4110304,14.8768772 13.5792312,14.7027838 13.5792312,14.4880967 L13.5792312,11.9999766 C13.5792312,11.6429304 13.725818,11.3002748 13.9813365,11.059994 C14.2402988,10.816432 14.5766553,10.7010728 14.9286446,10.7360884 C15.5487495,10.7972133 16.034638,11.383759 16.034638,12.0713202 L16.034638,19.464337 C16.034638,21.5365829 14.4049653,23.222439 12.4017797,23.222439 Z M0.751602415,5.36502077 C0.751602415,2.83546321 2.74096763,0.777560981 5.18622432,0.777560981 C7.6314357,0.777560981 9.62080092,2.83546321 9.62080092,5.36502077 C9.62080092,7.11097049 8.6518786,8.70209238 7.1654848,9.4709815 L7.1654848,8.45440536 C8.15973693,7.77101607 8.76896672,6.60753397 8.76896672,5.36502077 C8.76896672,3.32136851 7.16172384,1.65876239 5.18622432,1.65876239 C3.21067949,1.65876239 1.60348192,3.32136851 1.60348192,5.36502077 C1.60348192,6.60744022 2.21271171,7.77101607 3.20691853,8.45440536 L3.20691853,9.4709815 C1.72057004,8.70209238 0.751602415,7.11097049 0.751602415,5.36502077 Z M13.4758276,10.4846514 C13.4249414,10.5325107 13.3767286,10.5829012 13.3313706,10.635448 C13.022972,10.0399491 12.4555206,9.61268435 11.7931843,9.54729385 C11.2360642,9.49245021 10.6804847,9.68285609 10.2688637,10.069996 C10.2180228,10.1178084 10.1698101,10.1681989 10.1244067,10.2207457 C9.85524903,9.7009498 9.38852781,9.30940369 8.83367331,9.17477896 C9.79534559,8.18581214 10.3724033,6.82165855 10.3724033,5.36502077 C10.3724033,2.4067453 8.04586602,0 5.18622432,0 C2.32653731,0 0,2.4067453 0,5.36502077 C0,7.53542278 1.28026615,9.50145019 3.20691853,10.325183 L3.20691853,12.6293191 L1.76284683,13.6963326 C0.907251677,14.3285814 0.555806067,15.4466886 0.888310951,16.4785459 L2.31253568,20.8986623 C2.91034665,22.7536899 4.58188831,24 6.47206394,24 L12.4017797,24 C14.8193956,24 16.7862857,21.9653477 16.7862857,19.4643839 L16.7862857,12.0713202 C16.7862857,10.987291 16.0017409,10.0608553 15.0001028,9.96199617 C14.4429827,9.90715253 13.8874032,10.0975584 13.4758276,10.4846514 Z" fill="#FFFFFF"></path></g></g></g></g></svg>