<svg xmlns:xlink="http://www.w3.org/1999/xlink" data-v-423bf9ae="" xmlns="http://www.w3.org/2000/svg" viewBox="0 0 333 90" class="iconLeft" width="333"  height="90" ><!----><!----><!----><g data-v-423bf9ae="" id="2b222a2d-4a08-4500-8fb7-ddad765dcfe1" fill="#ffffff" transform="matrix(5.567234516143799,0,0,5.567234516143799,103.75861358642578,4.083001136779785)"><path d="M1.12 12.60L3.43 12.60L3.43 2.10L1.12 2.10ZM10.57 6.84L10.57 8.65L13.46 8.65C12.97 9.75 11.88 10.48 10.59 10.48C8.82 10.48 7.46 9.12 7.46 7.35C7.46 5.58 8.82 4.22 10.59 4.22C11.83 4.22 12.85 4.88 13.37 5.88L15.37 4.85C14.46 3.13 12.65 1.96 10.59 1.96C7.60 1.96 5.20 4.38 5.20 7.35C5.20 10.33 7.60 12.74 10.59 12.74C13.56 12.74 15.98 10.33 15.98 7.35L15.98 6.84ZM26.83 2.10L23.49 9.36L20.18 2.10L17.68 2.10L17.68 12.60L19.99 12.60L19.99 6.34L22.82 12.60L24.15 12.60L27.00 6.35L27.00 12.60L29.31 12.60L29.31 2.10ZM36.38 12.74C38.47 12.74 40.27 11.57 41.16 9.85L39.17 8.82C38.66 9.82 37.63 10.48 36.38 10.48C34.62 10.48 33.27 9.12 33.27 7.35C33.27 5.58 34.62 4.22 36.38 4.22C37.63 4.22 38.66 4.88 39.17 5.88L41.16 4.85C40.27 3.13 38.47 1.96 36.38 1.96C33.41 1.96 30.99 4.38 30.99 7.35C30.99 10.33 33.41 12.74 36.38 12.74Z"/></g><!----><g data-v-423bf9ae="" id="5168d36d-5c95-46cc-80b3-b8adf0433533" transform="matrix(1.6666666269302368,0,0,1.6666666269302368,-8.333332061767578,-8.333332061767578)" stroke="none" fill="#00A3DD"><path d="M58 5H6a1 1 0 0 0-1 1v39.479l4.552-2.373a1 1 0 0 1 .895 0l3.211 1.605 3.51-5.266a1.001 1.001 0 0 1 1.727.108L22 45.764l3.105-6.211a.999.999 0 0 1 .736-.539.997.997 0 0 1 .869.282l2.925 2.925 3.437-8.592a.999.999 0 0 1 1.636-.336l2.928 2.928 3.436-8.592c.026-.064.059-.126.097-.184l4.001-6a.911.911 0 0 1 .125-.152L47.586 19H46a1 1 0 1 1 0-2h4a1.003 1.003 0 0 1 1 1v4a1 1 0 1 1-2 0v-1.586l-2.223 2.223-3.889 5.831-3.96 9.903a.999.999 0 0 1-1.636.336l-2.928-2.928-3.437 8.592a.999.999 0 0 1-1.636.336 252.304 252.304 0 0 1-3.011-3.036l-3.388 6.776c-.167.339-.513.553-.892.553s-.725-.214-.895-.553l-3.229-6.459-3.044 4.566a1 1 0 0 1-1.279.34L10 45.118 5 47.52V58a1 1 0 0 0 1 1h52a1 1 0 0 0 1-1V6a1 1 0 0 0-1-1z"/></g><!----></svg>